<svg xmlns="http://www.w3.org/2000/svg" xmlns:xlink="http://www.w3.org/1999/xlink" width="500" zoomAndPan="magnify" viewBox="0 0 375 149.999998" height="200" preserveAspectRatio="xMidYMid meet" version="1.0"><defs><g/><clipPath id="7f5f204962"><path d="M 234.074219 31.460938 L 260.390625 31.460938 L 260.390625 57.777344 L 234.074219 57.777344 Z M 234.074219 31.460938 " clip-rule="nonzero"/></clipPath><clipPath id="d63bbda2ae"><path d="M 247.234375 31.460938 C 239.964844 31.460938 234.074219 37.351562 234.074219 44.617188 C 234.074219 51.886719 239.964844 57.777344 247.234375 57.777344 C 254.5 57.777344 260.390625 51.886719 260.390625 44.617188 C 260.390625 37.351562 254.5 31.460938 247.234375 31.460938 Z M 247.234375 31.460938 " clip-rule="nonzero"/></clipPath><clipPath id="a7f5bf54e8"><path d="M 233.386719 34 L 260.710938 34 L 260.710938 55.078125 L 233.386719 55.078125 Z M 233.386719 34 " clip-rule="nonzero"/></clipPath></defs><rect x="-37.5" width="450" fill="#ffffff" y="-15" height="179.999997" fill-opacity="1"/><rect x="-37.5" width="450" fill="#ffffff" y="-15" height="179.999997" fill-opacity="1"/><g fill="#000000" fill-opacity="1"><g transform="translate(5.273873, 94.804201)"><g><path d="M 4.390625 0 L 4.390625 -37.5 L 17.328125 -37.5 L 17.328125 -33.546875 L 17.46875 -33.546875 C 20.832031 -36.910156 24.414062 -38.59375 28.21875 -38.59375 C 30.945312 -38.59375 33.503906 -38.03125 35.890625 -36.90625 C 38.273438 -35.789062 40.078125 -34.0625 41.296875 -31.71875 C 45.097656 -36.300781 49.238281 -38.59375 53.71875 -38.59375 C 57.71875 -38.59375 61.15625 -37.472656 64.03125 -35.234375 C 66.90625 -32.992188 68.34375 -29.484375 68.34375 -24.703125 L 68.34375 0 L 55.40625 0 L 55.40625 -21.203125 C 55.40625 -23.191406 54.851562 -24.859375 53.75 -26.203125 C 52.65625 -27.546875 51.015625 -28.21875 48.828125 -28.21875 C 46.921875 -28.21875 45.46875 -27.644531 44.46875 -26.5 C 43.476562 -25.351562 42.929688 -23.972656 42.828125 -22.359375 L 42.828125 0 L 29.890625 0 L 29.890625 -21.203125 C 29.890625 -23.191406 29.34375 -24.859375 28.25 -26.203125 C 27.15625 -27.546875 25.507812 -28.21875 23.3125 -28.21875 C 21.3125 -28.21875 19.8125 -27.59375 18.8125 -26.34375 C 17.820312 -25.101562 17.328125 -23.628906 17.328125 -21.921875 L 17.328125 0 Z M 4.390625 0 "/></g></g></g><g fill="#000000" fill-opacity="1"><g transform="translate(74.185757, 94.804201)"><g><path d="M 32.8125 -37.5 L 47.734375 -37.5 L 18.265625 19 L 3.359375 19 L 16.296875 -5.84375 L -1.46875 -37.5 L 13.453125 -37.5 L 23.90625 -18.265625 Z M 32.8125 -37.5 "/></g></g></g><g fill="#000000" fill-opacity="1"><g transform="translate(117.374106, 94.804201)"><g><path d="M 4.390625 -60.296875 L 26.390625 -60.296875 C 32.523438 -60.296875 37.492188 -58.710938 41.296875 -55.546875 C 45.097656 -52.378906 47 -47.773438 47 -41.734375 C 47 -35.691406 45.070312 -30.953125 41.21875 -27.515625 C 37.375 -24.078125 32.429688 -22.359375 26.390625 -22.359375 L 18.125 -22.359375 L 18.125 0 L 4.390625 0 Z M 18.125 -33.328125 L 22 -33.328125 C 25.070312 -33.328125 27.59375 -33.945312 29.5625 -35.1875 C 31.539062 -36.4375 32.53125 -38.472656 32.53125 -41.296875 C 32.53125 -44.171875 31.539062 -46.226562 29.5625 -47.46875 C 27.59375 -48.71875 25.070312 -49.34375 22 -49.34375 L 18.125 -49.34375 Z M 18.125 -33.328125 "/></g></g></g><g fill="#000000" fill-opacity="1"><g transform="translate(162.97403, 94.804201)"><g><path d="M 6.9375 -4.640625 C 3.4375 -8.460938 1.6875 -13.148438 1.6875 -18.703125 C 1.6875 -24.265625 3.4375 -28.96875 6.9375 -32.8125 C 10.445312 -36.664062 14.90625 -38.59375 20.3125 -38.59375 C 25.289062 -38.59375 29.382812 -37.035156 32.59375 -33.921875 L 32.59375 -37.5 L 45.53125 -37.5 L 45.53125 0 L 32.75 0 L 32.75 -4.234375 L 32.59375 -4.234375 C 29.382812 -0.679688 25.289062 1.09375 20.3125 1.09375 C 14.90625 1.09375 10.445312 -0.816406 6.9375 -4.640625 Z M 17.9375 -25.078125 C 16.257812 -23.421875 15.421875 -21.300781 15.421875 -18.71875 C 15.421875 -16.132812 16.222656 -14.023438 17.828125 -12.390625 C 19.441406 -10.753906 21.5625 -9.9375 24.1875 -9.9375 C 26.726562 -9.9375 28.8125 -10.765625 30.4375 -12.421875 C 32.070312 -14.078125 32.890625 -16.175781 32.890625 -18.71875 C 32.890625 -21.300781 32.046875 -23.421875 30.359375 -25.078125 C 28.679688 -26.734375 26.625 -27.5625 24.1875 -27.5625 C 21.707031 -27.5625 19.625 -26.734375 17.9375 -25.078125 Z M 17.9375 -25.078125 "/></g></g></g><g fill="#000000" fill-opacity="1"><g transform="translate(209.816292, 94.804201)"><g><path d="M 6.578125 -37.5 L 6.578125 -51.453125 L 19.515625 -51.453125 L 19.515625 -37.5 L 27.40625 -37.5 L 27.40625 -27.625 L 19.515625 -27.625 L 19.515625 -15.71875 C 19.515625 -12.257812 20.488281 -10.53125 22.4375 -10.53125 C 22.925781 -10.53125 23.4375 -10.625 23.96875 -10.8125 C 24.507812 -11.007812 24.925781 -11.207031 25.21875 -11.40625 L 25.65625 -11.6875 L 28.875 -1.25 C 26.09375 0.3125 22.925781 1.09375 19.375 1.09375 C 16.9375 1.09375 14.835938 0.664062 13.078125 -0.1875 C 11.328125 -1.039062 10 -2.1875 9.09375 -3.625 C 8.195312 -5.0625 7.550781 -6.570312 7.15625 -8.15625 C 6.769531 -9.738281 6.578125 -11.429688 6.578125 -13.234375 L 6.578125 -27.625 L 1.171875 -27.625 L 1.171875 -37.5 Z M 6.578125 -37.5 "/></g></g></g><g fill="#000000" fill-opacity="1"><g transform="translate(235.61201, 94.804201)"><g><path d="M 5.625 -58.40625 C 7.132812 -59.914062 8.9375 -60.671875 11.03125 -60.671875 C 13.132812 -60.671875 14.941406 -59.914062 16.453125 -58.40625 C 17.960938 -56.894531 18.71875 -55.085938 18.71875 -52.984375 C 18.71875 -50.890625 17.960938 -49.085938 16.453125 -47.578125 C 14.941406 -46.066406 13.132812 -45.3125 11.03125 -45.3125 C 8.9375 -45.3125 7.132812 -46.066406 5.625 -47.578125 C 4.113281 -49.085938 3.359375 -50.890625 3.359375 -52.984375 C 3.359375 -55.085938 4.113281 -56.894531 5.625 -58.40625 Z M 4.390625 -37.5 L 4.390625 0 L 17.328125 0 L 17.328125 -37.5 Z M 4.390625 -37.5 "/></g></g></g><g fill="#000000" fill-opacity="1"><g transform="translate(254.611465, 94.804201)"><g><path d="M 42.328125 -16.953125 L 15.125 -16.953125 C 15.125 -14.328125 15.976562 -12.378906 17.6875 -11.109375 C 19.394531 -9.835938 21.25 -9.203125 23.25 -9.203125 C 25.34375 -9.203125 27 -9.484375 28.21875 -10.046875 C 29.4375 -10.609375 30.820312 -11.71875 32.375 -13.375 L 41.734375 -8.703125 C 37.835938 -2.171875 31.359375 1.09375 22.296875 1.09375 C 16.640625 1.09375 11.789062 -0.84375 7.75 -4.71875 C 3.707031 -8.59375 1.6875 -13.257812 1.6875 -18.71875 C 1.6875 -24.175781 3.707031 -28.851562 7.75 -32.75 C 11.789062 -36.644531 16.640625 -38.59375 22.296875 -38.59375 C 28.242188 -38.59375 33.078125 -36.875 36.796875 -33.4375 C 40.523438 -30 42.390625 -25.09375 42.390625 -18.71875 C 42.390625 -17.832031 42.367188 -17.242188 42.328125 -16.953125 Z M 15.5 -24.125 L 29.75 -24.125 C 29.457031 -26.070312 28.6875 -27.566406 27.4375 -28.609375 C 26.195312 -29.660156 24.601562 -30.1875 22.65625 -30.1875 C 20.507812 -30.1875 18.800781 -29.625 17.53125 -28.5 C 16.269531 -27.382812 15.59375 -25.925781 15.5 -24.125 Z M 15.5 -24.125 "/></g></g></g><g fill="#000000" fill-opacity="1"><g transform="translate(295.607463, 94.804201)"><g><path d="M 4.390625 0 L 4.390625 -37.5 L 17.328125 -37.5 L 17.328125 -33.546875 L 17.46875 -33.546875 C 20.832031 -36.910156 24.414062 -38.59375 28.21875 -38.59375 C 30.0625 -38.59375 31.894531 -38.347656 33.71875 -37.859375 C 35.550781 -37.367188 37.304688 -36.613281 38.984375 -35.59375 C 40.671875 -34.570312 42.035156 -33.125 43.078125 -31.25 C 44.128906 -29.375 44.65625 -27.191406 44.65625 -24.703125 L 44.65625 0 L 31.71875 0 L 31.71875 -21.203125 C 31.71875 -23.148438 31.097656 -24.851562 29.859375 -26.3125 C 28.617188 -27.769531 27 -28.5 25 -28.5 C 23.050781 -28.5 21.285156 -27.742188 19.703125 -26.234375 C 18.117188 -24.722656 17.328125 -23.046875 17.328125 -21.203125 L 17.328125 0 Z M 4.390625 0 "/></g></g></g><g fill="#000000" fill-opacity="1"><g transform="translate(340.842001, 94.804201)"><g><path d="M 6.578125 -37.5 L 6.578125 -51.453125 L 19.515625 -51.453125 L 19.515625 -37.5 L 27.40625 -37.5 L 27.40625 -27.625 L 19.515625 -27.625 L 19.515625 -15.71875 C 19.515625 -12.257812 20.488281 -10.53125 22.4375 -10.53125 C 22.925781 -10.53125 23.4375 -10.625 23.96875 -10.8125 C 24.507812 -11.007812 24.925781 -11.207031 25.21875 -11.40625 L 25.65625 -11.6875 L 28.875 -1.25 C 26.09375 0.3125 22.925781 1.09375 19.375 1.09375 C 16.9375 1.09375 14.835938 0.664062 13.078125 -0.1875 C 11.328125 -1.039062 10 -2.1875 9.09375 -3.625 C 8.195312 -5.0625 7.550781 -6.570312 7.15625 -8.15625 C 6.769531 -9.738281 6.578125 -11.429688 6.578125 -13.234375 L 6.578125 -27.625 L 1.171875 -27.625 L 1.171875 -37.5 Z M 6.578125 -37.5 "/></g></g></g><g clip-path="url(#7f5f204962)"><g clip-path="url(#d63bbda2ae)"><path fill="#ffffff" d="M 234.074219 31.460938 L 260.390625 31.460938 L 260.390625 57.777344 L 234.074219 57.777344 Z M 234.074219 31.460938 " fill-opacity="1" fill-rule="nonzero"/></g></g><g clip-path="url(#a7f5bf54e8)"><path fill="#dc0611" d="M 247.246094 55.074219 C 246.886719 54.820312 246.566406 54.601562 246.246094 54.378906 C 244.195312 52.933594 242.230469 51.386719 240.359375 49.722656 C 239.859375 49.28125 239.332031 48.875 238.804688 48.46875 C 237.832031 47.714844 236.996094 46.839844 236.320312 45.824219 C 235.667969 44.835938 235.027344 43.835938 234.433594 42.8125 C 233.808594 41.734375 233.402344 40.582031 233.394531 39.320312 C 233.386719 38.203125 233.746094 37.222656 234.53125 36.410156 C 234.851562 36.082031 235.1875 35.765625 235.558594 35.496094 C 237.417969 34.136719 239.375 34.007812 241.40625 35.117188 C 242.785156 35.867188 243.871094 36.945312 244.863281 38.125 C 245.496094 38.875 246.117188 39.636719 246.734375 40.398438 C 246.808594 40.488281 246.847656 40.601562 246.960938 40.8125 C 247.203125 40.425781 247.351562 40.203125 247.484375 39.976562 C 248.253906 38.671875 249.109375 37.429688 250.253906 36.417969 C 250.847656 35.886719 251.5 35.394531 252.191406 34.996094 C 253.917969 34 255.6875 34.03125 257.382812 35.058594 C 258.0625 35.472656 258.695312 35.996094 259.246094 36.566406 C 260.371094 37.734375 260.710938 39.164062 260.421875 40.734375 C 260.164062 42.148438 259.5 43.386719 258.6875 44.5625 C 257.378906 46.449219 255.769531 48.078125 254.101562 49.65625 C 252.132812 51.519531 250.011719 53.207031 247.773438 54.746094 C 247.625 54.851562 247.464844 54.9375 247.246094 55.074219 Z M 234.667969 37.5 C 233.761719 38.445312 233.757812 39.558594 234.039062 40.71875 C 234.085938 40.636719 234.105469 40.546875 234.101562 40.460938 C 234.089844 39.519531 234.234375 38.613281 234.628906 37.75 C 234.664062 37.671875 234.644531 37.574219 234.652344 37.488281 C 234.757812 37.4375 234.863281 37.390625 234.96875 37.339844 C 234.917969 37.296875 234.867188 37.253906 234.8125 37.207031 C 234.765625 37.304688 234.714844 37.402344 234.667969 37.5 Z M 244.792969 52.773438 C 244.792969 52.753906 244.792969 52.734375 244.789062 52.71875 C 244.785156 52.710938 244.769531 52.707031 244.757812 52.699219 C 244.773438 52.71875 244.792969 52.738281 244.8125 52.753906 C 245.515625 53.296875 246.222656 53.835938 246.949219 54.394531 C 247.324219 54.136719 247.632812 53.925781 248.027344 53.652344 C 247.839844 53.617188 247.777344 53.585938 247.71875 53.597656 C 246.871094 53.722656 246.121094 53.484375 245.417969 53.03125 C 245.230469 52.910156 245.003906 52.855469 244.792969 52.773438 Z M 258.835938 42.929688 C 259.433594 42.183594 259.707031 41.296875 259.929688 40.394531 C 260.355469 38.660156 259.746094 37.3125 258.351562 36.195312 C 256.324219 34.566406 253.359375 34.636719 251.648438 35.960938 C 250.109375 37.152344 248.957031 38.640625 248.054688 40.328125 C 247.992188 40.441406 248.015625 40.597656 248.003906 40.734375 C 248.527344 40.179688 249.011719 39.636719 249.363281 39.019531 C 249.957031 37.988281 250.773438 37.167969 251.6875 36.429688 C 252.453125 35.8125 253.308594 35.378906 254.347656 35.417969 C 254.457031 35.421875 254.613281 35.417969 254.667969 35.355469 C 254.863281 35.132812 255.085938 35.214844 255.308594 35.253906 C 257.257812 35.582031 258.429688 36.742188 258.941406 38.570312 C 259.289062 39.796875 259.222656 41.042969 258.949219 42.28125 C 258.902344 42.5 258.882812 42.722656 258.851562 42.945312 C 258.796875 42.957031 258.742188 42.96875 258.828125 42.949219 C 258.804688 43.023438 258.820312 42.976562 258.835938 42.929688 Z M 238.660156 35.78125 C 238.355469 35.519531 238.078125 35.59375 237.8125 35.632812 C 235.898438 35.929688 234.460938 37.9375 234.890625 39.816406 C 235.046875 40.511719 235.367188 41.1875 235.707031 41.824219 C 236.40625 43.136719 237.414062 44.238281 238.375 45.371094 C 238.421875 45.425781 238.515625 45.445312 238.648438 45.511719 C 238.652344 45.160156 238.425781 45.015625 238.28125 44.832031 C 237.734375 44.132812 237.125 43.472656 236.640625 42.734375 C 236.167969 42.015625 235.71875 41.253906 235.429688 40.453125 C 234.625 38.21875 236.066406 36.097656 238.472656 35.859375 C 238.515625 35.855469 238.554688 35.824219 238.660156 35.78125 Z M 244.613281 38.578125 C 244.648438 38.539062 244.683594 38.496094 244.714844 38.453125 C 243.515625 37.097656 242.246094 35.828125 240.421875 35.253906 C 239.816406 35.0625 239.199219 34.960938 238.558594 35.125 C 240.375 35.273438 241.84375 36.085938 243.105469 37.332031 C 243.570312 37.785156 244.109375 38.164062 244.613281 38.578125 Z M 238.867188 46.183594 C 238.972656 46.84375 239.054688 46.929688 239.53125 47.039062 C 239.285156 46.722656 239.074219 46.453125 238.867188 46.183594 Z M 247.683594 41.382812 C 247.304688 41.277344 247.304688 41.277344 247.089844 41.601562 C 247.320312 41.519531 247.5 41.453125 247.683594 41.382812 Z M 247.683594 41.382812 " fill-opacity="1" fill-rule="nonzero"/></g></svg>